<?xml version="1.0" standalone="no"?>
<!DOCTYPE svg PUBLIC "-//W3C//DTD SVG 20010904//EN"
 "http://www.w3.org/TR/2001/REC-SVG-20010904/DTD/svg10.dtd">
<svg version="1.0" xmlns="http://www.w3.org/2000/svg" width="1186.7" height="1186.7" viewBox="0 0 890 890">
  <path d="m134 2 13 9 12 9 9 7a245 245 0 0 0 16 12 2932 2932 0 0 0 66 50l28 21a414 414 0 0 0 31 24 293 293 0 0 1 22 16c2 1 7 10 8 16l2 6 7 18 3 9 1 4c-1 3-6 5-13 6a344 344 0 0 0-37 10 351 351 0 0 0-43 11l-10 2-8 3-9 2-9 3c-4 2-24 2-40 0a434 434 0 0 0-47-5 346 346 0 0 0-49-5l-20-2a395 395 0 0 1-43-4l-16-2H0v17l9 1a371 371 0 0 0 42 4l25 2a345 345 0 0 1 46 5l25 2a344 344 0 0 0 45 5l14 2c8 0 10 0 16-2l7-2 9-2 12-3c6-1 8 1 10 11l3 11 2 10 2 9c1 0 2 4 2 9l3 11 2 7 2 11 3 10 2 8 2 6-3 5-5 8-19 30-23 33-5 8-3 4-3 5-2 5-6 8-6 9a265 265 0 0 0-11 17l-11 16-5 8-4 7-2 2-3 5-4 4c-2 2-2 2-6 0l-7-6-18-15-37-29a2390 2390 0 0 0-42-34l-14-11-6-5-9-7a825 825 0 0 1-29-23v22l5 4 6 5a700 700 0 0 0 32 26 1274 1274 0 0 1 74 59l35 28 15 12 3 2 3-3 7-9 5-8 8-13 11-15 5-9c2-3 4-4 7-2a1160 1160 0 0 1 77 75l-5 4-8 5-5 2-4 2-9 6-12 6-13 7-13 7a175 175 0 0 1-18 10l-12 6-12 7-7 4a1140 1140 0 0 0-74 40 550 550 0 0 1-29 16l-13 7-13 7-13 7a360 360 0 0 1-29 16l-4 2v10l1 10 5-3a217 217 0 0 0 21-12l4-1 6-4a295 295 0 0 1 26-14l14-8 15-8 7-4 9-5 16-8a636 636 0 0 0 24-13 1556 1556 0 0 0 51-28c6-3 7 1 4 9l-3 11-2 10-3 8-2 10a361 361 0 0 0-11 44 151 151 0 0 1-6 20l-6 24a453 453 0 0 0-11 44l-3 9-2 9-3 9-2 8-2 10-2 7-2 8-2 5h9l9-1 2-4a283 283 0 0 0 9-36 390 390 0 0 0 12-44l2-8 2-9 3-10a129 129 0 0 0 5-21 1587 1587 0 0 0 29-110c2-9 5-16 7-18l5-4 21-11c3-2 6-1 9 4a176 176 0 0 0 14 22l3 6a1787 1787 0 0 0 20 30l9 15a3018 3018 0 0 1 33 51c12 18 12 18 10 33a649 649 0 0 0-4 65l-3 35v15h17v-5a995 995 0 0 0 5-65 504 504 0 0 0 3-65l-10-18-5-8-2-2-3-5-4-7c-3-5-3-5 3-17l2-6 2-4 2-5 3-8 11-24 5-14c1-2 7-6 7-5l1 5 3 11a467 467 0 0 1 9 36 351 351 0 0 1 11 41l3 10 3 11 2 8 2 8 2 8 3 10a793 793 0 0 0 19 75l8 28 1 7h9c9 0 9 0 9-2l-2-8-3-9-1-7-3-10a295 295 0 0 0-9-35l-3-12c-3-6-2-10 0-14l3-5 4-6 5-9 4-7a224 224 0 0 0 15-24l4-6 2-4a144 144 0 0 0 11-18 772 772 0 0 0 15-25c1-3 1-3 5-2 2 1 3 3 4 6l2 5 2 2 39 80 5 9a190 190 0 0 0 9 19l2 4 4 8 4 9 5 8 1 4 3 5 3 5 2 5 2 4 2 4 3 6 3 5 1 8v7h18v-8l-1-10-8-15-7-14-2-4-3-5-29-60-30-60-7-13-6-13c-5-9-11-24-10-24l3-4a71 71 0 0 1 9-16l4-7a536 536 0 0 0 21-33l7 4 6 5a2749 2749 0 0 1 81 73c2 4 4 33 5 73l2 49 3 70v12h18v-20l-2-32c-3-33-3-74 0-72l62 62 62 62h24l-75-75c-44-44-76-77-76-79-2-3-4-48-3-51l7-11 12-17 5-7 8-13 15-22 11-16 8-11 5-6 7-11 4-7c2-3 2-3 5-2l3 2 6 7a210 210 0 0 0 14 16l11 14 17 20 16 19 5 6 13 16a888 888 0 0 1 32 39l6 6 3 4v-13c0-14 0-15-5-20l-5-6-3-4a952 952 0 0 1-50-60 740 740 0 0 1-51-61l-7-9a404 404 0 0 0-19-30l-5-8-6-10a851 851 0 0 0-14-21c-4-4-2-6 10-7a474 474 0 0 1 55-5l24-2a596 596 0 0 0 58-5l15-2h3v-17h-12l-23 3a487 487 0 0 1-53 4l-22 2a684 684 0 0 0-57 4c-12 1-13 0-14-1l-6-9-4-7-6-8c-4-7-4-8 4-16a906 906 0 0 0 42-47l20-21a3926 3926 0 0 1 59-64l7 2 10 5a2064 2064 0 0 1 52 24l3 1v-19l-7-3-17-8-4-2-7-3a930 930 0 0 1-39-17c-4 0-5 1-9 6l-8 8-11 12-19 22-10 11c-1 2-9 1-12 0l-4-3-7-3-11-5c-19-8-35-16-36-18l5-4a773 773 0 0 0 40-23l7-5 5-3 7-4a164 164 0 0 1 15-9l11-7 44-26 8-4 7-5a517 517 0 0 1 46-27c6-3 6-4 6-14l-1-10-3 2-6 4-18 11a224 224 0 0 1-28 16 207 207 0 0 1-30 18l-3 2-4 3-11 6a1219 1219 0 0 1-79 47l-12 7-7 5-12 6c-3 3-8 4-12 4l-18-8c-4-2-3-8 1-14l2-4 2-4a1273 1273 0 0 0 41-82 662 662 0 0 1 29-58c7-14 9-19 11-20s44 0 83 2l46 2h29V67h-10l-99-3c-15 0-15 0-16-3l1-3 3-5a342 342 0 0 1 13-22l5-7a327 327 0 0 0 13-24h-10l-10 1-5 8a3241 3241 0 0 1-32 53h-10c-11 0-14 1-15 6l-3 5-2 5-2 4a263 263 0 0 0-20 39 7501 7501 0 0 0-66 130c-2 1-4 1-13-3l-15-7c-9-4-11-7-13-14a280 280 0 0 0-9-27 474 474 0 0 0-12-34l-7-19-2-7-3-6-2-8-3-9a489 489 0 0 1 5-33l4-13 3-10a157 157 0 0 0 5-19l2-8 3-9 2-9 2-9 2-5c0-2-1-2-9-2h-9v4l-2 6-2 8-2 7-3 10-3 9-2 8-2 9-3 9a356 356 0 0 1-11 38 592 592 0 0 1-59 53 761 761 0 0 0-46 41 1096 1096 0 0 1-35 31c-4 1-4 1-6-4l-2-6-2-6-2-6-3-7-2-6-2-6-2-7-3-7-2-5-2-7-3-7-2-6-3-7c-2-5-8-10-20-18l-7-6-2-3 5-3a183 183 0 0 1 24-14l5-4 7-4 8-5 11-6 18-12a656 656 0 0 0 38-23c8-4 8-4 8-27V0h-18v34l-7 4-9 5-2 2-5 3-4 2-6 4-8 5-4 2-4 2-5 4-7 4a134 134 0 0 1-15 9l-8 5-15 9a279 279 0 0 0-17 11c-4 3-6 3-12-1l-7-5a528 528 0 0 1-40-30l-12-9a1063 1063 0 0 1-56-43L169 6l-7-6h-15c-15 0-15 0-13 2zm400 134a616 616 0 0 1 13 38l4 13a266 266 0 0 0 12 32l2 7 3 10c2 4 2 9 0 12l-15 28-41 80-23 45c-24 48-22 45-26 44-4 0-7-2-8-8l-3-8-2-5-3-6-2-7-2-6-3-7-2-7-2-6-2-5-3-8a141 141 0 0 0-9-24l-2-7a94 94 0 0 1-6-17 411 411 0 0 1-11-30l-4-12-5-14c-5-14-5-14 2-20a369 369 0 0 1 31-28l9-8 9-8a746 746 0 0 1 27-23 990 990 0 0 1 59-51l3 7zm-176 88c2 0 2 2 7 16l4 10 2 6 2 5 2 8 3 6 3 7a228 228 0 0 0 11 32l2 6 2 5 2 7 3 6 2 8 5 13a255 255 0 0 1 9 25l2 7 3 7 2 6 3 9a344 344 0 0 0 8 24c0 2-1 2-4 2l-8-1-18-2a393 393 0 0 1-45-5l-23-3-19-2-18-2-19-2-14-1c-4-1-4-1-3-4l3-6 3-5 6-8 16-24 5-8c5-7 5-10 2-18l-2-8-2-8-2-8-2-10c-2-4-3-10-3-13l-2-8-2-8-3-9-2-9-3-10c-1-5-2-12 0-13 0-1 3-2 7-2l9-3 7-2 9-2 10-3c9-1 18-4 27-7 8-2 9-2 13-1zm236 35 10 4a2587 2587 0 0 1 50 23l18 8 11 5 11 5 12 5a419 419 0 0 1 31 15l4 3-2 3-9 11-11 12-12 13-18 19c-12 15-15 18-19 19l-4 2-5 1-7 3-20 7-8 3-20 6a474 474 0 0 0-48 17l-6 2-6 2-7 2-7 3-7 2-8 3-5 2-6 2c-6 3-11 3-18-1-6-3-6-3-6-6l2-5 3-4 4-8 12-25 52-100 2-5a807 807 0 0 1 30-51l7 3zm82 165 9 14a279 279 0 0 0 14 22l3 6 6 8a593 593 0 0 0 25 41l14 21c5 8 5 10-5 22a145 145 0 0 0-10 16l-7 9-8 11-8 12a856 856 0 0 1-46 61 720 720 0 0 1-44-39 1458 1458 0 0 1-45-43l3-6 4-7 5-7 3-5 4-7a184 184 0 0 0 9-15l5-9c2-4 2-4 0-6l-6-4-6-4-6-2a5240 5240 0 0 1-68-38c0-1 8-4 17-6l7-3 7-3a255 255 0 0 0 28-9 282 282 0 0 0 31-11l8-3a181 181 0 0 0 26-8l7-3 8-3 8-2c5-2 6-2 8 1zm-412 14 18 2 23 3 22 2a322 322 0 0 1 41 5 412 412 0 0 1 47 5c19 1 22 2 18 10l-5 11-4 10-12 27c0 2-5 9-7 9l-8 4a2196 2196 0 0 1-50 23l-10 4a529 529 0 0 0-26 10c-3-1-21-18-40-37l-27-26c-13-12-20-20-20-21l7-12 12-20 5-6c3-3 4-4 7-4l8 1zm198 28 14 7 26 14a2391 2391 0 0 0 66 34c12 6 16 9 16 10 0 2-1 5-7 15a372 372 0 0 0-17 27l-4 7-5 8-5 8-4 7-2 4-2 3-6 10-4 7-2 2-3 5-2 4-6 10-2 4a79 79 0 0 0-8 12 747 747 0 0 0-12 19l-7 12-4 7a1485 1485 0 0 0-28 46l-9 15c-1 3-6 8-7 8l-2-6-2-8-3-10a352 352 0 0 0-10-38 253 253 0 0 0-9-33 262 262 0 0 0-8-34l-3-10-2-8-3-10c-4-11-3-18 6-33l1-4 3-8a1424 1424 0 0 0 44-99c2-7 6-8 12-4zm-69 82c2 0 2 6-1 11l-7 16a147 147 0 0 1-9 20l-2 6-5 11-3 7-2 5-4 8-8 18-7 17-4 8-2 7-7 8-7-11-2-2-3-5-4-6-8-12-7-11-7-11-13-21c-3-5-3-7-1-10a183 183 0 0 1 27-15l18-9 10-5 8-3 4-2 4-1 8-4a777 777 0 0 1 24-11l9-4 1 1z"/>
</svg>
